<svg width="211" height="60" viewBox="0 0 211 60" fill="none" xmlns="http://www.w3.org/2000/svg">
<path d="M121.281 26.8019V9.2231H127.162C129.949 9.2231 132.185 10.0401 133.87 11.6742C135.555 13.2918 136.398 15.4128 136.398 18.0373C136.398 20.6617 135.572 22.7827 133.92 24.4003C132.285 26.0014 130.057 26.8019 127.238 26.8019H121.281ZM124.76 23.7071H127.012C128.714 23.7071 130.091 23.1706 131.142 22.0977C132.21 21.0248 132.744 19.6714 132.744 18.0373C132.744 16.3867 132.226 15.0249 131.192 13.952C130.157 12.8792 128.839 12.3427 127.238 12.3427H124.76V23.7071Z" fill="#0B378C"/>
<path d="M140.063 26.8019V9.2231H151.426V12.3427H143.517V16.5517H149.849V19.6218H143.517V23.7071H151.951V26.8019H140.063Z" fill="#0B378C"/>
<path d="M167.033 9.2231H170.562V26.8019H166.958L159.124 15.1405H159.074V26.8019H155.57V9.2231H159.074L167.008 21.1074H167.033V9.2231Z" fill="#0B378C"/>
<path d="M175.089 26.8019V9.2231H178.618V26.8019H175.089Z" fill="#0B378C"/>
<path d="M188.494 27C185.975 27 183.814 26.0757 182.012 24.227L184.115 21.6521C184.749 22.3783 185.458 22.9313 186.242 23.3109C187.026 23.6741 187.794 23.8556 188.544 23.8556C189.379 23.8556 190.013 23.6905 190.447 23.3604C190.88 23.0138 191.097 22.5599 191.097 21.9987C191.097 21.388 190.872 20.9258 190.422 20.6122C189.971 20.2821 189.162 19.919 187.994 19.5228C187.193 19.2422 186.526 18.9781 185.992 18.7305C185.458 18.4664 184.907 18.1198 184.34 17.6906C183.773 17.2615 183.347 16.7416 183.064 16.1308C182.78 15.5201 182.638 14.8186 182.638 14.0263C182.638 12.6233 183.189 11.4431 184.29 10.4858C185.391 9.52846 186.743 9.03328 188.344 9.00027C190.513 8.98376 192.507 9.72652 194.326 11.2286L192.299 13.853C190.897 12.6976 189.604 12.1199 188.419 12.1199C187.785 12.1199 187.268 12.2767 186.868 12.5903C186.484 12.9039 186.292 13.3331 186.292 13.8778C186.275 14.3894 186.484 14.8021 186.918 15.1157C187.352 15.4128 188.136 15.7842 189.27 16.2299C191.106 16.9396 192.307 17.4843 192.874 17.864C194.142 18.7223 194.776 19.9685 194.776 21.6026C194.776 23.3687 194.142 24.7139 192.874 25.6383C191.606 26.5461 190.146 27 188.494 27Z" fill="#0B378C"/>
<path d="M121.281 52.3019V34.7231H124.81V42.3241H132.093V34.7231H135.622V52.3019H132.093V45.4437H124.81V52.3019H121.281Z" fill="#0B378C"/>
<path d="M148.349 52.5C145.679 52.5 143.502 51.6582 141.816 49.9746C140.131 48.2745 139.289 46.1205 139.289 43.5125C139.289 40.8881 140.131 38.734 141.816 37.0504C143.502 35.3503 145.679 34.5003 148.349 34.5003C150.985 34.5003 153.145 35.3338 154.831 37.0009C156.532 38.668 157.383 40.8385 157.383 43.5125C157.383 46.1865 156.532 48.357 154.831 50.0241C153.145 51.6747 150.985 52.5 148.349 52.5ZM148.374 49.2566C149.909 49.2566 151.185 48.7119 152.203 47.6225C153.22 46.5331 153.729 45.1631 153.729 43.5125C153.729 41.8619 153.22 40.4919 152.203 39.4025C151.185 38.3131 149.909 37.7684 148.374 37.7684C146.788 37.7684 145.487 38.3214 144.469 39.4273C143.451 40.5332 142.943 41.8949 142.943 43.5125C142.943 45.1301 143.451 46.4918 144.469 47.5977C145.487 48.7036 146.788 49.2566 148.374 49.2566Z" fill="#0B378C"/>
<path d="M175.56 34.7231H179.089V52.3019H175.61V41.3832H175.56L171.231 48.9595H168.953L164.623 41.3832H164.573V52.3019H161.07V34.7231H164.623L170.079 44.7257H170.129L175.56 34.7231Z" fill="#0B378C"/>
<path d="M183.493 52.3019V34.7231H194.856V37.8427H186.947V42.0517H193.279V45.1218H186.947V49.2071H195.381V52.3019H183.493Z" fill="#0B378C"/>
<path d="M204.356 52.5C201.837 52.5 199.676 51.5757 197.874 49.727L199.977 47.1521C200.611 47.8783 201.32 48.4313 202.104 48.8109C202.888 49.1741 203.656 49.3556 204.407 49.3556C205.241 49.3556 205.875 49.1906 206.309 48.8604C206.742 48.5138 206.959 48.0599 206.959 47.4987C206.959 46.888 206.734 46.4258 206.284 46.1122C205.833 45.7821 205.024 45.419 203.856 45.0228C203.055 44.7422 202.388 44.4781 201.854 44.2305C201.32 43.9664 200.769 43.6198 200.202 43.1906C199.635 42.7615 199.209 42.2416 198.926 41.6308C198.642 41.0201 198.5 40.3186 198.5 39.5263C198.5 38.1233 199.051 36.9431 200.152 35.9858C201.253 35.0285 202.605 34.5333 204.206 34.5003C206.375 34.4838 208.369 35.2265 210.188 36.7286L208.161 39.353C206.759 38.1976 205.466 37.6199 204.281 37.6199C203.647 37.6199 203.13 37.7767 202.73 38.0903C202.346 38.4039 202.154 38.8331 202.154 39.3778C202.137 39.8894 202.346 40.3021 202.78 40.6157C203.214 40.9128 203.998 41.2842 205.132 41.7299C206.968 42.4396 208.169 42.9843 208.736 43.364C210.004 44.2223 210.638 45.4685 210.638 47.1026C210.638 48.8687 210.004 50.2139 208.736 51.1383C207.468 52.0461 206.008 52.5 204.356 52.5Z" fill="#0B378C"/>
<path fill-rule="evenodd" clip-rule="evenodd" d="M41.6946 2.01613L38.1876 4.02675L38.135 25.378C38.0933 42.3922 38.1352 46.7295 38.3413 46.73C38.6747 46.7308 41.1694 46.0344 43.6028 45.2612L45.5111 44.6548V22.3248C45.5111 10.0431 45.4413 -0.00306054 45.3563 6.99422e-07C45.2713 0.00306193 43.6235 0.910209 41.6946 2.01613ZM31.2252 7.9886L27.5634 10.057V48.5863L28.8528 48.452C29.562 48.3779 31.1957 48.1438 32.4834 47.9316C33.7713 47.7193 34.9083 47.5457 35.0105 47.5457C35.1196 47.5457 35.1963 38.9395 35.1963 26.7293C35.1963 15.2803 35.1266 5.91451 35.0416 5.91655C34.9566 5.91839 33.239 6.85084 31.2252 7.9886ZM22.6124 12.8892C21.6479 13.4549 20.0461 14.3872 19.0526 14.9607L17.2462 16.0037L17.3519 47.6477L19.1054 48.0008C20.0698 48.1949 21.7641 48.4153 22.8702 48.4906L24.8816 48.6275V30.2293C24.8816 15.639 24.8282 11.8343 24.6237 11.846C24.482 11.8539 23.5768 12.3235 22.6124 12.8892ZM87.9046 36.2624C85.7882 36.4097 80.3643 37.3983 76.971 38.2552C71.6191 39.6067 67.1293 41.0869 55.9289 45.1922C45.1076 49.1585 40.4366 50.5602 34.11 51.7396C21.8437 54.0261 11.1478 51.5677 1.98293 44.3555C-0.0608313 42.7473 -0.192447 42.6708 0.139481 43.2842C0.676672 44.2773 6.85107 50.12 8.79065 51.4708C12.5871 54.1149 16.5081 55.83 21.1683 56.8855C23.3885 57.3882 23.8716 57.4228 28.6981 57.4257C33.218 57.4282 34.1741 57.3702 36.4341 56.9559C43.3429 55.6896 50.0539 53.6143 60.158 49.6194C71.5025 45.134 75.774 43.5595 81.0968 41.9014C91.7202 38.592 101.111 37.7465 108.818 39.4054C111.791 40.0452 111.931 40.0514 110.718 39.4873C107.851 38.1538 102.272 36.7307 98.3224 36.3252C96.4947 36.1377 90.2396 36.0999 87.9046 36.2624Z" fill="#0B378C"/>
<path fill-rule="evenodd" clip-rule="evenodd" d="M97.7243 41.1465C87.949 41.8181 80.0653 44.0183 63.0668 50.8183C60.5707 51.8169 57.8785 52.8783 57.0843 53.1773C56.29 53.4761 55.0368 53.9467 54.2993 54.223C47.9097 56.6179 41.4744 58.3508 36.558 59.0002C35.4801 59.1424 33.234 59.2651 31.5665 59.2724C29.899 59.2798 28.5993 59.3459 28.6784 59.4194C28.9393 59.662 33.0233 60.0002 35.6893 60C44.6627 59.9992 53.6334 57.6724 68.7399 51.4279C86.0482 44.273 93.6176 42.1222 102.985 41.6967C105.213 41.5955 105.932 41.5087 105.357 41.411C104.314 41.2334 99.0916 41.0524 97.7243 41.1465Z" fill="#FD8B19"/>
<path fill-rule="evenodd" clip-rule="evenodd" d="M48.2642 2.33278L48.2642 8.85233L57.6074 14.1472L66.9505 19.4583L66.9819 37.3245L68.4649 36.9536L71.4838 36.0006L73.0199 35.4205V16.24L66.3781 12.456V4.12741H60.4096V9.22208L57.5069 7.41844L54.6041 5.63944L48.2642 2.33278Z" fill="#FD8B19"/>
</svg>
